<mxfile host="65bd71144e">
    <diagram id="b4evr6afsE_KYcXBCFgj" name="Page-1">
        <mxGraphModel dx="988" dy="720" grid="1" gridSize="10" guides="1" tooltips="1" connect="1" arrows="1" fold="1" page="1" pageScale="1" pageWidth="1169" pageHeight="827" math="0" shadow="0">
            <root>
                <mxCell id="0"/>
                <mxCell id="1" parent="0"/>
                <mxCell id="2" value="BOSS" style="rounded=1;whiteSpace=wrap;html=1;fillColor=#a20025;strokeColor=#6F0000;fontColor=#ffffff;" vertex="1" parent="1">
                    <mxGeometry x="600" y="10" width="120" height="60" as="geometry"/>
                </mxCell>
                <mxCell id="118" style="edgeStyle=orthogonalEdgeStyle;shape=flexArrow;rounded=1;html=1;exitX=1;exitY=0.5;exitDx=0;exitDy=0;entryX=0;entryY=0.5;entryDx=0;entryDy=0;dashed=1;dashPattern=1 1;strokeColor=default;fontColor=#FFFFFF;" edge="1" parent="1" source="6" target="117">
                    <mxGeometry relative="1" as="geometry"/>
                </mxCell>
                <mxCell id="244" style="edgeStyle=orthogonalEdgeStyle;shape=link;rounded=1;html=1;strokeColor=default;fontSize=18;fontColor=#FFFFFF;" edge="1" parent="1" source="6" target="241">
                    <mxGeometry relative="1" as="geometry">
                        <Array as="points">
                            <mxPoint x="498" y="420"/>
                            <mxPoint x="550" y="420"/>
                            <mxPoint x="550" y="210"/>
                            <mxPoint x="430" y="210"/>
                        </Array>
                    </mxGeometry>
                </mxCell>
                <mxCell id="6" value="fitness" style="rounded=1;whiteSpace=wrap;html=1;fillColor=#60a917;fontColor=#ffffff;strokeColor=#2D7600;" vertex="1" parent="1">
                    <mxGeometry x="457.5" y="437.5" width="80" height="60" as="geometry"/>
                </mxCell>
                <mxCell id="141" style="edgeStyle=orthogonalEdgeStyle;shape=flexArrow;rounded=1;html=1;exitX=1;exitY=0.5;exitDx=0;exitDy=0;entryX=0;entryY=0.5;entryDx=0;entryDy=0;dashed=1;dashPattern=1 1;strokeColor=default;fontColor=#FFFFFF;" edge="1" parent="1" source="7" target="138">
                    <mxGeometry relative="1" as="geometry"/>
                </mxCell>
                <mxCell id="242" style="edgeStyle=orthogonalEdgeStyle;rounded=1;html=1;strokeColor=default;fontSize=18;fontColor=#FFFFFF;shape=link;" edge="1" parent="1" source="7" target="241">
                    <mxGeometry relative="1" as="geometry">
                        <Array as="points">
                            <mxPoint x="198" y="210"/>
                            <mxPoint x="370" y="210"/>
                        </Array>
                    </mxGeometry>
                </mxCell>
                <mxCell id="7" value="surrogate model" style="rounded=1;whiteSpace=wrap;html=1;fillColor=#60a917;fontColor=#ffffff;strokeColor=#2D7600;" vertex="1" parent="1">
                    <mxGeometry x="157.5" y="247.5" width="80" height="60" as="geometry"/>
                </mxCell>
                <mxCell id="123" style="edgeStyle=orthogonalEdgeStyle;shape=flexArrow;rounded=1;html=1;exitX=1;exitY=0.5;exitDx=0;exitDy=0;entryX=0;entryY=0.5;entryDx=0;entryDy=0;dashed=1;dashPattern=1 1;strokeColor=default;fontColor=#FFFFFF;" edge="1" parent="1" source="28" target="122">
                    <mxGeometry relative="1" as="geometry"/>
                </mxCell>
                <mxCell id="206" style="edgeStyle=orthogonalEdgeStyle;rounded=1;html=1;dashed=1;strokeColor=default;fontColor=#FFFFFF;" edge="1" parent="1" source="28" target="2">
                    <mxGeometry relative="1" as="geometry">
                        <Array as="points">
                            <mxPoint x="1030" y="30"/>
                        </Array>
                    </mxGeometry>
                </mxCell>
                <mxCell id="28" value="EI maximizer" style="rounded=1;whiteSpace=wrap;html=1;fillColor=#60a917;fontColor=#ffffff;strokeColor=#2D7600;" vertex="1" parent="1">
                    <mxGeometry x="990" y="160" width="80" height="60" as="geometry"/>
                </mxCell>
                <mxCell id="270" style="edgeStyle=orthogonalEdgeStyle;rounded=1;html=1;dashed=1;strokeColor=default;fontSize=18;fontColor=#FFFFFF;" edge="1" parent="1" source="27" target="2">
                    <mxGeometry relative="1" as="geometry">
                        <Array as="points">
                            <mxPoint x="870" y="50"/>
                        </Array>
                    </mxGeometry>
                </mxCell>
                <mxCell id="27" value="model fitter" style="rounded=1;whiteSpace=wrap;html=1;fillColor=#60a917;fontColor=#ffffff;strokeColor=#2D7600;" vertex="1" parent="1">
                    <mxGeometry x="830" y="414" width="80" height="60" as="geometry"/>
                </mxCell>
                <mxCell id="47" style="edgeStyle=none;rounded=1;html=1;strokeColor=default;" edge="1" parent="1" source="43" target="6">
                    <mxGeometry relative="1" as="geometry"/>
                </mxCell>
                <mxCell id="43" value="LinFitness&#10;f = &lt;a, y&gt;" style="rounded=0;whiteSpace=wrap;fillColor=#008a00;fontColor=#ffffff;strokeColor=#005700;" vertex="1" parent="1">
                    <mxGeometry x="407.5" y="557.5" width="80" height="60" as="geometry"/>
                </mxCell>
                <mxCell id="48" style="edgeStyle=none;rounded=1;html=1;strokeColor=default;" edge="1" parent="1" source="44" target="6">
                    <mxGeometry relative="1" as="geometry"/>
                </mxCell>
                <mxCell id="44" value="NonlinFitness&lt;br&gt;f = fit(y)" style="rounded=0;whiteSpace=wrap;html=1;fillColor=#008a00;fontColor=#ffffff;strokeColor=#005700;" vertex="1" parent="1">
                    <mxGeometry x="522.5" y="557.5" width="80" height="60" as="geometry"/>
                </mxCell>
                <mxCell id="56" style="edgeStyle=none;rounded=1;html=1;strokeColor=default;" edge="1" parent="1" source="49" target="7">
                    <mxGeometry relative="1" as="geometry"/>
                </mxCell>
                <mxCell id="58" style="edgeStyle=orthogonalEdgeStyle;shape=link;rounded=1;html=1;strokeColor=default;" edge="1" parent="1" source="49" target="51">
                    <mxGeometry relative="1" as="geometry">
                        <Array as="points">
                            <mxPoint x="218" y="467.5"/>
                        </Array>
                    </mxGeometry>
                </mxCell>
                <mxCell id="49" value="nonparametric&#10;y = GP(x; λ)" style="rounded=0;whiteSpace=wrap;fillColor=#008a00;fontColor=#ffffff;strokeColor=#005700;" vertex="1" parent="1">
                    <mxGeometry x="267.5" y="437.5" width="80" height="60" as="geometry"/>
                </mxCell>
                <mxCell id="55" style="rounded=1;html=1;strokeColor=default;" edge="1" parent="1" source="50" target="7">
                    <mxGeometry relative="1" as="geometry"/>
                </mxCell>
                <mxCell id="57" style="edgeStyle=orthogonalEdgeStyle;rounded=1;html=1;strokeColor=default;shape=link;" edge="1" parent="1" source="50" target="51">
                    <mxGeometry relative="1" as="geometry">
                        <Array as="points">
                            <mxPoint x="178" y="467.5"/>
                        </Array>
                    </mxGeometry>
                </mxCell>
                <mxCell id="50" value="parametric&#10;y = m(x; θ)" style="rounded=1;whiteSpace=wrap;strokeColor=#2D7600;fillColor=#60a917;fontColor=#ffffff;" vertex="1" parent="1">
                    <mxGeometry x="52.5" y="437.5" width="80" height="60" as="geometry"/>
                </mxCell>
                <mxCell id="53" style="rounded=1;html=1;strokeColor=default;" edge="1" parent="1" source="51" target="7">
                    <mxGeometry relative="1" as="geometry"/>
                </mxCell>
                <mxCell id="51" value="semiparametric" style="rounded=0;whiteSpace=wrap;html=1;fillColor=#008a00;fontColor=#ffffff;strokeColor=#005700;" vertex="1" parent="1">
                    <mxGeometry x="157.5" y="382.5" width="80" height="60" as="geometry"/>
                </mxCell>
                <mxCell id="61" style="rounded=1;html=1;strokeColor=default;" edge="1" parent="1" source="59" target="27">
                    <mxGeometry relative="1" as="geometry"/>
                </mxCell>
                <mxCell id="133" style="edgeStyle=orthogonalEdgeStyle;shape=flexArrow;rounded=1;html=1;exitX=1;exitY=0.5;exitDx=0;exitDy=0;entryX=0;entryY=0.5;entryDx=0;entryDy=0;dashed=1;dashPattern=1 1;strokeColor=default;fontColor=#FFFFFF;" edge="1" parent="1" source="59" target="126">
                    <mxGeometry relative="1" as="geometry"/>
                </mxCell>
                <mxCell id="59" value="MLE" style="rounded=1;whiteSpace=wrap;html=1;fillColor=#60a917;strokeColor=#2D7600;fontColor=#ffffff;" vertex="1" parent="1">
                    <mxGeometry x="705" y="514" width="80" height="60" as="geometry"/>
                </mxCell>
                <mxCell id="62" style="edgeStyle=none;rounded=1;html=1;strokeColor=default;" edge="1" parent="1" source="60" target="27">
                    <mxGeometry relative="1" as="geometry"/>
                </mxCell>
                <mxCell id="137" style="edgeStyle=orthogonalEdgeStyle;shape=flexArrow;rounded=1;html=1;exitX=1;exitY=0.5;exitDx=0;exitDy=0;entryX=0;entryY=0.5;entryDx=0;entryDy=0;dashed=1;dashPattern=1 1;strokeColor=default;fontColor=#FFFFFF;" edge="1" parent="1" source="60" target="130">
                    <mxGeometry relative="1" as="geometry"/>
                </mxCell>
                <mxCell id="60" value="BI Sampler" style="rounded=1;whiteSpace=wrap;html=1;fillColor=#60a917;strokeColor=#2D7600;fontColor=#ffffff;" vertex="1" parent="1">
                    <mxGeometry x="965" y="514" width="80" height="60" as="geometry"/>
                </mxCell>
                <mxCell id="235" style="rounded=1;html=1;strokeColor=default;fontColor=#FFFFFF;" edge="1" parent="1" source="71" target="28">
                    <mxGeometry relative="1" as="geometry">
                        <mxPoint x="1013.3333333333335" y="220" as="targetPoint"/>
                    </mxGeometry>
                </mxCell>
                <mxCell id="71" value="Optim" style="rounded=0;whiteSpace=wrap;html=1;fillColor=#008a00;fontColor=#ffffff;strokeColor=#005700;" vertex="1" parent="1">
                    <mxGeometry x="920" y="250" width="80" height="60" as="geometry"/>
                </mxCell>
                <mxCell id="74" style="edgeStyle=none;rounded=1;html=1;strokeColor=default;fontColor=#FFFFFF;" edge="1" parent="1" source="73" target="59">
                    <mxGeometry relative="1" as="geometry"/>
                </mxCell>
                <mxCell id="73" value="Optim" style="rounded=0;whiteSpace=wrap;html=1;fillColor=#008a00;fontColor=#ffffff;strokeColor=#005700;" vertex="1" parent="1">
                    <mxGeometry x="730" y="614" width="80" height="60" as="geometry"/>
                </mxCell>
                <mxCell id="236" style="edgeStyle=none;rounded=1;html=1;strokeColor=default;fontColor=#FFFFFF;" edge="1" parent="1" source="75" target="28">
                    <mxGeometry relative="1" as="geometry">
                        <mxPoint x="1037.5" y="220" as="targetPoint"/>
                    </mxGeometry>
                </mxCell>
                <mxCell id="75" value="CMAES (Evolutionary)" style="rounded=0;whiteSpace=wrap;html=1;fillColor=#008a00;fontColor=#ffffff;strokeColor=#005700;" vertex="1" parent="1">
                    <mxGeometry x="990" y="280" width="80" height="60" as="geometry"/>
                </mxCell>
                <mxCell id="237" style="edgeStyle=none;rounded=1;html=1;strokeColor=default;fontColor=#FFFFFF;" edge="1" parent="1" source="76" target="28">
                    <mxGeometry relative="1" as="geometry">
                        <mxPoint x="1052" y="220" as="targetPoint"/>
                    </mxGeometry>
                </mxCell>
                <mxCell id="76" value="NLopt" style="rounded=0;whiteSpace=wrap;html=1;fillColor=#008a00;fontColor=#ffffff;strokeColor=#005700;" vertex="1" parent="1">
                    <mxGeometry x="1060" y="310" width="80" height="60" as="geometry"/>
                </mxCell>
                <mxCell id="82" style="edgeStyle=none;rounded=1;html=1;strokeColor=default;fontColor=#FFFFFF;" edge="1" parent="1" source="81" target="60">
                    <mxGeometry relative="1" as="geometry"/>
                </mxCell>
                <mxCell id="81" value="Turing" style="rounded=0;whiteSpace=wrap;html=1;fillColor=#008a00;fontColor=#ffffff;strokeColor=#005700;" vertex="1" parent="1">
                    <mxGeometry x="990" y="614" width="80" height="60" as="geometry"/>
                </mxCell>
                <mxCell id="106" style="edgeStyle=orthogonalEdgeStyle;shape=link;rounded=1;html=1;strokeColor=default;fontColor=#FFFFFF;" edge="1" parent="1" source="101" target="43">
                    <mxGeometry relative="1" as="geometry"/>
                </mxCell>
                <mxCell id="101" value="a" style="rounded=0;whiteSpace=wrap;labelBackgroundColor=#000000;fontColor=#FFFFFF;" vertex="1" parent="1">
                    <mxGeometry x="417.5" y="637.5" width="40" height="35" as="geometry"/>
                </mxCell>
                <mxCell id="104" style="edgeStyle=orthogonalEdgeStyle;shape=link;rounded=1;html=1;strokeColor=default;fontColor=#FFFFFF;" edge="1" parent="1" source="103" target="44">
                    <mxGeometry relative="1" as="geometry"/>
                </mxCell>
                <mxCell id="103" value="fit" style="rounded=0;whiteSpace=wrap;labelBackgroundColor=#000000;fontColor=#FFFFFF;" vertex="1" parent="1">
                    <mxGeometry x="532.5" y="637.5" width="40" height="35" as="geometry"/>
                </mxCell>
                <mxCell id="186" style="shape=link;rounded=1;html=1;exitX=0.5;exitY=0;exitDx=0;exitDy=0;entryX=0.25;entryY=1;entryDx=0;entryDy=0;strokeColor=default;fontColor=#FFFFFF;" edge="1" parent="1" source="107" target="143">
                    <mxGeometry relative="1" as="geometry"/>
                </mxCell>
                <mxCell id="107" value="m" style="rounded=0;whiteSpace=wrap;labelBackgroundColor=#000000;fontColor=#FFFFFF;" vertex="1" parent="1">
                    <mxGeometry x="127.5" y="677.5" width="40" height="35" as="geometry"/>
                </mxCell>
                <mxCell id="189" style="shape=link;rounded=1;html=1;exitX=0.75;exitY=0;exitDx=0;exitDy=0;entryX=0.5;entryY=1;entryDx=0;entryDy=0;strokeColor=default;fontColor=#FFFFFF;" edge="1" parent="1" source="108" target="143">
                    <mxGeometry relative="1" as="geometry"/>
                </mxCell>
                <mxCell id="108" value="θ priors" style="rounded=0;whiteSpace=wrap;labelBackgroundColor=#000000;fontColor=#FFFFFF;" vertex="1" parent="1">
                    <mxGeometry x="150" y="722.5" width="40" height="35" as="geometry"/>
                </mxCell>
                <mxCell id="116" style="edgeStyle=orthogonalEdgeStyle;shape=flexArrow;rounded=1;html=1;exitX=1;exitY=0.5;exitDx=0;exitDy=0;entryX=0;entryY=0.5;entryDx=0;entryDy=0;dashed=1;dashPattern=1 1;strokeColor=default;fontColor=#FFFFFF;" edge="1" parent="1" source="115" target="6">
                    <mxGeometry relative="1" as="geometry"/>
                </mxCell>
                <mxCell id="115" value="y" style="ellipse;whiteSpace=wrap;html=1;aspect=fixed;labelBackgroundColor=#000000;fontColor=#FFFFFF;" vertex="1" parent="1">
                    <mxGeometry x="387.5" y="452.5" width="30" height="30" as="geometry"/>
                </mxCell>
                <mxCell id="117" value="f" style="ellipse;whiteSpace=wrap;html=1;aspect=fixed;labelBackgroundColor=#000000;fontColor=#FFFFFF;" vertex="1" parent="1">
                    <mxGeometry x="577.5" y="452.5" width="30" height="30" as="geometry"/>
                </mxCell>
                <mxCell id="121" style="edgeStyle=orthogonalEdgeStyle;shape=flexArrow;rounded=1;html=1;exitX=1;exitY=0.5;exitDx=0;exitDy=0;entryX=0;entryY=0.5;entryDx=0;entryDy=0;dashed=1;dashPattern=1 1;strokeColor=default;fontColor=#FFFFFF;" edge="1" parent="1" source="120" target="28">
                    <mxGeometry relative="1" as="geometry"/>
                </mxCell>
                <mxCell id="120" value="model" style="ellipse;whiteSpace=wrap;html=1;aspect=fixed;labelBackgroundColor=#000000;fontColor=#FFFFFF;" vertex="1" parent="1">
                    <mxGeometry x="930" y="175" width="30" height="30" as="geometry"/>
                </mxCell>
                <mxCell id="122" value="x" style="ellipse;whiteSpace=wrap;html=1;aspect=fixed;labelBackgroundColor=#000000;fontColor=#FFFFFF;" vertex="1" parent="1">
                    <mxGeometry x="1100" y="175" width="30" height="30" as="geometry"/>
                </mxCell>
                <mxCell id="132" style="edgeStyle=orthogonalEdgeStyle;shape=flexArrow;rounded=1;html=1;exitX=1;exitY=0.5;exitDx=0;exitDy=0;entryX=0;entryY=0.5;entryDx=0;entryDy=0;dashed=1;dashPattern=1 1;strokeColor=default;fontColor=#FFFFFF;" edge="1" parent="1" source="124" target="59">
                    <mxGeometry relative="1" as="geometry"/>
                </mxCell>
                <mxCell id="124" value="model" style="ellipse;whiteSpace=wrap;html=1;aspect=fixed;labelBackgroundColor=#000000;fontColor=#FFFFFF;" vertex="1" parent="1">
                    <mxGeometry x="640" y="529" width="30" height="30" as="geometry"/>
                </mxCell>
                <mxCell id="135" style="edgeStyle=orthogonalEdgeStyle;shape=flexArrow;rounded=1;html=1;exitX=1;exitY=0.5;exitDx=0;exitDy=0;entryX=0;entryY=0.5;entryDx=0;entryDy=0;dashed=1;dashPattern=1 1;strokeColor=default;fontColor=#FFFFFF;" edge="1" parent="1" source="125" target="60">
                    <mxGeometry relative="1" as="geometry"/>
                </mxCell>
                <mxCell id="125" value="model" style="ellipse;whiteSpace=wrap;html=1;aspect=fixed;labelBackgroundColor=#000000;fontColor=#FFFFFF;" vertex="1" parent="1">
                    <mxGeometry x="895" y="529" width="30" height="30" as="geometry"/>
                </mxCell>
                <mxCell id="126" value="best θ" style="ellipse;whiteSpace=wrap;aspect=fixed;labelBackgroundColor=#000000;fontColor=#FFFFFF;" vertex="1" parent="1">
                    <mxGeometry x="815" y="529" width="30" height="30" as="geometry"/>
                </mxCell>
                <mxCell id="130" value="θ samples" style="ellipse;whiteSpace=wrap;html=1;labelBackgroundColor=#000000;fontColor=#FFFFFF;" vertex="1" parent="1">
                    <mxGeometry x="1085" y="521.5" width="65" height="45" as="geometry"/>
                </mxCell>
                <mxCell id="138" value="y" style="ellipse;whiteSpace=wrap;html=1;aspect=fixed;labelBackgroundColor=#000000;fontColor=#FFFFFF;" vertex="1" parent="1">
                    <mxGeometry x="267.5" y="262.5" width="30" height="30" as="geometry"/>
                </mxCell>
                <mxCell id="140" style="edgeStyle=orthogonalEdgeStyle;shape=flexArrow;rounded=1;html=1;exitX=1;exitY=0.5;exitDx=0;exitDy=0;entryX=0;entryY=0.5;entryDx=0;entryDy=0;dashed=1;dashPattern=1 1;strokeColor=default;fontColor=#FFFFFF;" edge="1" parent="1" source="139" target="7">
                    <mxGeometry relative="1" as="geometry"/>
                </mxCell>
                <mxCell id="139" value="x" style="ellipse;whiteSpace=wrap;html=1;aspect=fixed;labelBackgroundColor=#000000;fontColor=#FFFFFF;" vertex="1" parent="1">
                    <mxGeometry x="97.5" y="262.5" width="30" height="30" as="geometry"/>
                </mxCell>
                <mxCell id="179" style="rounded=1;html=1;exitX=0.5;exitY=0;exitDx=0;exitDy=0;entryX=0.25;entryY=1;entryDx=0;entryDy=0;strokeColor=default;fontColor=#FFFFFF;opacity=40;" edge="1" parent="1" source="142" target="50">
                    <mxGeometry relative="1" as="geometry"/>
                </mxCell>
                <mxCell id="142" value="LinModel&#10;y = &lt;θ, ϕ(x)&gt;" style="rounded=0;whiteSpace=wrap;fillColor=#008a00;fontColor=#ffffff;strokeColor=#005700;opacity=40;" vertex="1" parent="1">
                    <mxGeometry x="20" y="532.5" width="80" height="60" as="geometry"/>
                </mxCell>
                <mxCell id="180" style="edgeStyle=none;rounded=1;html=1;exitX=0.5;exitY=0;exitDx=0;exitDy=0;entryX=0.75;entryY=1;entryDx=0;entryDy=0;strokeColor=default;fontColor=#FFFFFF;" edge="1" parent="1" source="143" target="50">
                    <mxGeometry relative="1" as="geometry"/>
                </mxCell>
                <mxCell id="143" value="NonlinModel&lt;br&gt;y = m(x; θ)" style="rounded=0;whiteSpace=wrap;html=1;fillColor=#008a00;fontColor=#ffffff;strokeColor=#005700;" vertex="1" parent="1">
                    <mxGeometry x="137.5" y="532.5" width="80" height="60" as="geometry"/>
                </mxCell>
                <mxCell id="190" style="shape=link;rounded=1;html=1;exitX=0.5;exitY=0;exitDx=0;exitDy=0;entryX=0.25;entryY=1;entryDx=0;entryDy=0;strokeColor=default;fontColor=#FFFFFF;opacity=40;" edge="1" parent="1" source="147" target="142">
                    <mxGeometry relative="1" as="geometry"/>
                </mxCell>
                <mxCell id="147" value="ϕ" style="rounded=0;whiteSpace=wrap;labelBackgroundColor=#000000;fontColor=#FFFFFF;opacity=40;" vertex="1" parent="1">
                    <mxGeometry x="10" y="677.5" width="40" height="35" as="geometry"/>
                </mxCell>
                <mxCell id="192" style="shape=link;rounded=1;html=1;exitX=0.75;exitY=0;exitDx=0;exitDy=0;entryX=0.5;entryY=1;entryDx=0;entryDy=0;strokeColor=default;fontColor=#FFFFFF;opacity=40;" edge="1" parent="1" source="150" target="142">
                    <mxGeometry relative="1" as="geometry"/>
                </mxCell>
                <mxCell id="150" value="θ priors" style="rounded=0;whiteSpace=wrap;labelBackgroundColor=#000000;fontColor=#FFFFFF;opacity=40;" vertex="1" parent="1">
                    <mxGeometry x="30" y="722.5" width="40" height="35" as="geometry"/>
                </mxCell>
                <mxCell id="194" style="shape=link;rounded=1;html=1;exitX=0.5;exitY=0;exitDx=0;exitDy=0;entryX=0.25;entryY=1;entryDx=0;entryDy=0;strokeColor=default;fontColor=#FFFFFF;" edge="1" parent="1" source="155" target="49">
                    <mxGeometry relative="1" as="geometry"/>
                </mxCell>
                <mxCell id="155" value="λ&#10;priors" style="rounded=0;whiteSpace=wrap;labelBackgroundColor=#000000;fontColor=#FFFFFF;" vertex="1" parent="1">
                    <mxGeometry x="262.5" y="530" width="40" height="35" as="geometry"/>
                </mxCell>
                <mxCell id="255" style="edgeStyle=orthogonalEdgeStyle;shape=link;rounded=1;html=1;strokeColor=default;fontSize=18;fontColor=#FFFFFF;" edge="1" parent="1" source="157" target="241">
                    <mxGeometry relative="1" as="geometry">
                        <Array as="points">
                            <mxPoint x="330" y="150"/>
                            <mxPoint x="330" y="150"/>
                        </Array>
                    </mxGeometry>
                </mxCell>
                <mxCell id="157" value="noise var priors" style="rounded=0;whiteSpace=wrap;labelBackgroundColor=#000000;fontColor=#FFFFFF;" vertex="1" parent="1">
                    <mxGeometry x="257.5" y="132.5" width="40" height="35" as="geometry"/>
                </mxCell>
                <mxCell id="257" style="edgeStyle=orthogonalEdgeStyle;shape=link;rounded=1;html=1;strokeColor=default;fontSize=18;fontColor=#FFFFFF;" edge="1" parent="1" source="158" target="256">
                    <mxGeometry relative="1" as="geometry">
                        <Array as="points">
                            <mxPoint x="140" y="115"/>
                        </Array>
                    </mxGeometry>
                </mxCell>
                <mxCell id="158" value="X,Y data" style="rounded=0;whiteSpace=wrap;labelBackgroundColor=#000000;fontColor=#FFFFFF;" vertex="1" parent="1">
                    <mxGeometry x="170" y="97.5" width="37.5" height="35" as="geometry"/>
                </mxCell>
                <mxCell id="258" style="edgeStyle=orthogonalEdgeStyle;shape=link;rounded=1;html=1;strokeColor=default;fontSize=18;fontColor=#FFFFFF;" edge="1" parent="1" source="160" target="256">
                    <mxGeometry relative="1" as="geometry">
                        <Array as="points">
                            <mxPoint x="33" y="110"/>
                            <mxPoint x="80" y="110"/>
                        </Array>
                    </mxGeometry>
                </mxCell>
                <mxCell id="160" value="θ" style="rounded=0;whiteSpace=wrap;labelBackgroundColor=#000000;fontColor=#FFFFFF;" vertex="1" parent="1">
                    <mxGeometry x="12.5" y="132.5" width="40" height="35" as="geometry"/>
                </mxCell>
                <mxCell id="249" style="edgeStyle=orthogonalEdgeStyle;shape=link;rounded=1;html=1;strokeColor=default;fontSize=18;fontColor=#FFFFFF;" edge="1" parent="1" source="166" target="241">
                    <mxGeometry relative="1" as="geometry">
                        <Array as="points">
                            <mxPoint x="570.5" y="115"/>
                        </Array>
                    </mxGeometry>
                </mxCell>
                <mxCell id="166" value="x domain" style="rounded=0;whiteSpace=wrap;labelBackgroundColor=#000000;fontColor=#FFFFFF;" vertex="1" parent="1">
                    <mxGeometry x="550" y="97.5" width="40" height="35" as="geometry"/>
                </mxCell>
                <mxCell id="176" style="edgeStyle=orthogonalEdgeStyle;shape=link;rounded=1;html=1;strokeColor=default;fontColor=#FFFFFF;" edge="1" parent="1" source="175" target="73">
                    <mxGeometry relative="1" as="geometry"/>
                </mxCell>
                <mxCell id="175" value="alg options" style="rounded=0;whiteSpace=wrap;labelBackgroundColor=#000000;fontColor=#FFFFFF;" vertex="1" parent="1">
                    <mxGeometry x="750" y="704" width="40" height="35" as="geometry"/>
                </mxCell>
                <mxCell id="178" style="edgeStyle=orthogonalEdgeStyle;shape=link;rounded=1;html=1;strokeColor=default;fontColor=#FFFFFF;" edge="1" parent="1" source="177" target="81">
                    <mxGeometry relative="1" as="geometry"/>
                </mxCell>
                <mxCell id="177" value="alg options" style="rounded=0;whiteSpace=wrap;labelBackgroundColor=#000000;fontColor=#FFFFFF;" vertex="1" parent="1">
                    <mxGeometry x="1010" y="704" width="40" height="35" as="geometry"/>
                </mxCell>
                <mxCell id="252" style="edgeStyle=orthogonalEdgeStyle;shape=flexArrow;rounded=1;html=1;entryX=0;entryY=0.5;entryDx=0;entryDy=0;strokeColor=default;fontSize=18;fontColor=#FFFFFF;dashed=1;dashPattern=1 1;" edge="1" parent="1" source="214" target="251">
                    <mxGeometry relative="1" as="geometry"/>
                </mxCell>
                <mxCell id="214" value="x" style="ellipse;whiteSpace=wrap;html=1;aspect=fixed;labelBackgroundColor=#000000;fontColor=#FFFFFF;" vertex="1" parent="1">
                    <mxGeometry x="355" y="344" width="32.5" height="32.5" as="geometry"/>
                </mxCell>
                <mxCell id="215" value="y" style="ellipse;whiteSpace=wrap;html=1;aspect=fixed;labelBackgroundColor=#000000;fontColor=#FFFFFF;" vertex="1" parent="1">
                    <mxGeometry x="500" y="345.25" width="30" height="30" as="geometry"/>
                </mxCell>
                <mxCell id="248" style="edgeStyle=orthogonalEdgeStyle;shape=link;rounded=1;html=1;strokeColor=default;fontSize=18;fontColor=#FFFFFF;" edge="1" parent="1" source="219" target="241">
                    <mxGeometry relative="1" as="geometry">
                        <Array as="points">
                            <mxPoint x="470.5" y="83"/>
                            <mxPoint x="470.5" y="85"/>
                        </Array>
                    </mxGeometry>
                </mxCell>
                <mxCell id="219" value="c" style="rounded=0;whiteSpace=wrap;labelBackgroundColor=#000000;fontColor=#FFFFFF;" vertex="1" parent="1">
                    <mxGeometry x="495" y="62.5" width="40" height="35" as="geometry"/>
                </mxCell>
                <mxCell id="250" style="edgeStyle=orthogonalEdgeStyle;shape=link;rounded=1;html=1;strokeColor=default;fontSize=18;fontColor=#FFFFFF;" edge="1" parent="1" source="225" target="241">
                    <mxGeometry relative="1" as="geometry">
                        <Array as="points">
                            <mxPoint x="647.5" y="135"/>
                        </Array>
                    </mxGeometry>
                </mxCell>
                <mxCell id="225" value="discrete dims" style="rounded=0;whiteSpace=wrap;labelBackgroundColor=#000000;fontColor=#FFFFFF;" vertex="1" parent="1">
                    <mxGeometry x="617.5" y="132.5" width="60" height="35" as="geometry"/>
                </mxCell>
                <mxCell id="246" style="edgeStyle=orthogonalEdgeStyle;rounded=1;html=1;strokeColor=default;fontSize=18;fontColor=#FFFFFF;dashed=1;" edge="1" parent="1" source="241" target="2">
                    <mxGeometry relative="1" as="geometry">
                        <Array as="points">
                            <mxPoint x="396" y="30"/>
                        </Array>
                    </mxGeometry>
                </mxCell>
                <mxCell id="241" value="Problem:&#10;&#10;y = f(x) + ε&#10;f(x) ≈ m(x)&#10;&#10;max fitness(y)&#10;s.t. y &lt; c&#10;x ∈ D" style="rounded=0;whiteSpace=wrap;fillColor=#008a00;fontColor=#ffffff;strokeColor=#005700;" vertex="1" parent="1">
                    <mxGeometry x="347.5" y="55" width="97.5" height="120" as="geometry"/>
                </mxCell>
                <mxCell id="253" style="edgeStyle=orthogonalEdgeStyle;shape=flexArrow;rounded=1;html=1;entryX=0;entryY=0.5;entryDx=0;entryDy=0;dashed=1;dashPattern=1 1;strokeColor=default;fontSize=18;fontColor=#FFFFFF;" edge="1" parent="1" source="251" target="215">
                    <mxGeometry relative="1" as="geometry"/>
                </mxCell>
                <mxCell id="254" style="edgeStyle=orthogonalEdgeStyle;shape=link;rounded=1;html=1;strokeColor=default;fontSize=18;fontColor=#FFFFFF;" edge="1" parent="1" source="251" target="241">
                    <mxGeometry relative="1" as="geometry">
                        <Array as="points">
                            <mxPoint x="441" y="230"/>
                            <mxPoint x="410" y="230"/>
                        </Array>
                    </mxGeometry>
                </mxCell>
                <mxCell id="251" value="f" style="rounded=1;whiteSpace=wrap;html=1;fillColor=#1ba1e2;fontColor=#ffffff;strokeColor=#006EAF;" vertex="1" parent="1">
                    <mxGeometry x="422.5" y="340" width="37.5" height="40" as="geometry"/>
                </mxCell>
                <mxCell id="259" style="edgeStyle=orthogonalEdgeStyle;shape=link;rounded=1;html=1;strokeColor=default;fontSize=18;fontColor=#FFFFFF;" edge="1" parent="1" source="256" target="241">
                    <mxGeometry relative="1" as="geometry">
                        <Array as="points">
                            <mxPoint x="249" y="68"/>
                            <mxPoint x="249" y="80"/>
                        </Array>
                    </mxGeometry>
                </mxCell>
                <mxCell id="256" value="data" style="rounded=0;whiteSpace=wrap;html=1;fillColor=#008a00;fontColor=#ffffff;strokeColor=#005700;" vertex="1" parent="1">
                    <mxGeometry x="70" y="37.5" width="80" height="60" as="geometry"/>
                </mxCell>
                <mxCell id="274" style="edgeStyle=none;shape=link;rounded=1;html=1;strokeColor=default;fontSize=18;fontColor=#FFFFFF;" edge="1" parent="1" source="271" target="49">
                    <mxGeometry relative="1" as="geometry"/>
                </mxCell>
                <mxCell id="271" value="mean" style="rounded=0;whiteSpace=wrap;labelBackgroundColor=#000000;fontColor=#FFFFFF;" vertex="1" parent="1">
                    <mxGeometry x="307.5" y="570" width="40" height="35" as="geometry"/>
                </mxCell>
                <mxCell id="273" style="rounded=1;html=1;strokeColor=default;fontSize=18;fontColor=#FFFFFF;shape=link;" edge="1" parent="1" source="272" target="49">
                    <mxGeometry relative="1" as="geometry"/>
                </mxCell>
                <mxCell id="272" value="kernel" style="rounded=0;whiteSpace=wrap;labelBackgroundColor=#000000;fontColor=#FFFFFF;" vertex="1" parent="1">
                    <mxGeometry x="340" y="539" width="40" height="35" as="geometry"/>
                </mxCell>
                <mxCell id="277" style="edgeStyle=orthogonalEdgeStyle;shape=link;rounded=1;html=1;strokeColor=default;fontSize=18;fontColor=#FFFFFF;" edge="1" parent="1" source="275" target="256">
                    <mxGeometry relative="1" as="geometry">
                        <Array as="points">
                            <mxPoint x="80" y="120"/>
                            <mxPoint x="100" y="120"/>
                        </Array>
                    </mxGeometry>
                </mxCell>
                <mxCell id="275" value="length scales" style="rounded=0;whiteSpace=wrap;labelBackgroundColor=#000000;fontColor=#FFFFFF;" vertex="1" parent="1">
                    <mxGeometry x="60" y="132.5" width="40" height="35" as="geometry"/>
                </mxCell>
                <mxCell id="278" style="edgeStyle=orthogonalEdgeStyle;shape=link;rounded=1;html=1;strokeColor=default;fontSize=18;fontColor=#FFFFFF;" edge="1" parent="1" source="276" target="256">
                    <mxGeometry relative="1" as="geometry">
                        <Array as="points">
                            <mxPoint x="138" y="130"/>
                            <mxPoint x="120" y="130"/>
                        </Array>
                    </mxGeometry>
                </mxCell>
                <mxCell id="276" value="noise vars" style="rounded=0;whiteSpace=wrap;labelBackgroundColor=#000000;fontColor=#FFFFFF;" vertex="1" parent="1">
                    <mxGeometry x="117.5" y="140" width="40" height="35" as="geometry"/>
                </mxCell>
            </root>
        </mxGraphModel>
    </diagram>
</mxfile>